<svg width="128" height="128" viewBox="0 0 128 128" fill="none" xmlns="http://www.w3.org/2000/svg">
  <rect width="128" height="128" rx="36" fill="#121213"/>
  <circle cx="64" cy="64" r="34" fill="#FF6A1A"/>
  <path d="M64 39C55.7157 39 49 45.7157 49 54V57.5C49 65.7843 55.7157 72.5 64 72.5C72.2843 72.5 79 65.7843 79 57.5V54C79 45.7157 72.2843 39 64 39Z" fill="#FFD8B3"/>
  <path d="M45 94C46.9385 82.4724 54.5046 76 64 76C73.4954 76 81.0615 82.4724 83 94H45Z" fill="#0E1011" fill-opacity="0.24"/>
  <path d="M55 51C55 46.0294 59.0294 42 64 42C68.9706 42 73 46.0294 73 51V54C73 58.9706 68.9706 63 64 63C59.0294 63 55 58.9706 55 54V51Z" fill="#111315" fill-opacity="0.16"/>
  <circle cx="58" cy="55" r="2.2" fill="#111315"/>
  <circle cx="70" cy="55" r="2.2" fill="#111315"/>
</svg>
