<svg width="96" height="96" viewBox="0 0 96 96" fill="none" xmlns="http://www.w3.org/2000/svg">
  <rect width="96" height="96" rx="24" fill="#111213"/>
  <rect x="18" y="18" width="60" height="60" rx="20" fill="#16181A" stroke="rgba(143,245,255,0.18)"/>
  <path d="M48 24L63 32.5V49.5L48 58L33 49.5V32.5L48 24Z" fill="url(#paint0_linear)"/>
  <path d="M48 38L58 43.5V54.5L48 60L38 54.5V43.5L48 38Z" fill="#0D1113" stroke="#8FF5FF" stroke-opacity="0.56"/>
  <circle cx="48" cy="48" r="4.5" fill="#8FF5FF"/>
  <path d="M48 13V20" stroke="#8FF5FF" stroke-width="2.5" stroke-linecap="round"/>
  <path d="M48 76V83" stroke="#8FF5FF" stroke-width="2.5" stroke-linecap="round"/>
  <path d="M13 48H20" stroke="#8FF5FF" stroke-width="2.5" stroke-linecap="round"/>
  <path d="M76 48H83" stroke="#8FF5FF" stroke-width="2.5" stroke-linecap="round"/>
  <path d="M23 23L28.5 28.5" stroke="#8FF5FF" stroke-width="2.5" stroke-linecap="round"/>
  <path d="M67.5 67.5L73 73" stroke="#8FF5FF" stroke-width="2.5" stroke-linecap="round"/>
  <path d="M23 73L28.5 67.5" stroke="#8FF5FF" stroke-width="2.5" stroke-linecap="round"/>
  <path d="M67.5 28.5L73 23" stroke="#8FF5FF" stroke-width="2.5" stroke-linecap="round"/>
  <defs>
    <linearGradient id="paint0_linear" x1="33" y1="24" x2="63" y2="58" gradientUnits="userSpaceOnUse">
      <stop stop-color="#00EEFC"/>
      <stop offset="1" stop-color="#65AFFF"/>
    </linearGradient>
  </defs>
</svg>
